<svg width="50" height="50" fill="none" xmlns="http://www.w3.org/2000/svg"><rect width="50" height="50" rx="10" fill="#03DE82"/><path d="M19.068 37.36c-2.424 0-4.416-.384-5.976-1.152-1.56-.768-2.712-1.872-3.456-3.312-.744-1.464-1.116-3.204-1.116-5.22V17.524c0-.768-.084-1.308-.252-1.62-.144-.336-.3-.504-.468-.504h6.912c-.168.024-.336.192-.504.504-.144.312-.216.852-.216 1.62v10.08c0 1.536.216 2.724.648 3.564.432.84 1.032 1.416 1.8 1.728.768.312 1.656.468 2.664.468h.396c.792 0 1.488-.084 2.088-.252.624-.168 1.14-.456 1.548-.864.432-.408.756-.984.972-1.728.24-.768.36-1.74.36-2.916v-10.08c0-.768-.084-1.308-.252-1.62-.144-.336-.3-.504-.468-.504h6.912c-.168.024-.336.204-.504.54-.144.312-.216.852-.216 1.62v10.116c0 2.016-.384 3.756-1.152 5.22-.744 1.44-1.896 2.544-3.456 3.312-1.536.768-3.504 1.152-5.904 1.152h-.36ZM33.5527 37c.168 0 .324-.156.468-.468.168-.336.252-.9.252-1.692V17.56c0-.768-.084-1.32-.252-1.656-.144-.336-.3-.504-.468-.504h6.948c-.168 0-.336.168-.504.504-.168.312-.252.876-.252 1.692V34.84c0 .768.084 1.32.252 1.656.168.336.336.504.504.504h-6.948Z" fill="#103425"/></svg>