<svg width="143" height="52" viewBox="0 0 143 52" fill="none" xmlns="http://www.w3.org/2000/svg">
<path d="M2.1 39C2.296 39 2.492 38.804 2.688 38.412C2.884 38.02 2.982 37.376 2.982 36.48V16.32C2.982 15.424 2.884 14.794 2.688 14.43C2.492 14.038 2.296 13.828 2.1 13.8H12.012C11.844 13.828 11.76 14.052 11.76 14.472C11.788 14.864 12.026 15.508 12.474 16.404C12.67 16.768 12.95 17.342 13.314 18.126C13.706 18.91 14.14 19.82 14.616 20.856C15.12 21.892 15.638 22.998 16.17 24.174C16.73 25.35 17.29 26.526 17.85 27.702C18.41 28.878 18.928 29.984 19.404 31.02H19.446C19.95 29.984 20.482 28.892 21.042 27.744C21.63 26.568 22.204 25.392 22.764 24.216C23.324 23.04 23.856 21.934 24.36 20.898C24.864 19.834 25.298 18.91 25.662 18.126C26.026 17.314 26.292 16.712 26.46 16.32C26.852 15.424 27.062 14.78 27.09 14.388C27.118 13.996 27.062 13.8 26.922 13.8H36.834C36.638 13.8 36.442 13.996 36.246 14.388C36.05 14.78 35.952 15.438 35.952 16.362V36.48C35.952 37.376 36.05 38.02 36.246 38.412C36.442 38.804 36.638 39 36.834 39H28.728C28.924 39 29.106 38.804 29.274 38.412C29.47 38.02 29.568 37.376 29.568 36.48V22.872H29.484C29.036 23.712 28.56 24.636 28.056 25.644C27.552 26.652 27.034 27.674 26.502 28.71C25.998 29.746 25.508 30.754 25.032 31.734C24.556 32.714 24.122 33.61 23.73 34.422C23.338 35.234 23.016 35.92 22.764 36.48C22.372 37.348 22.162 37.978 22.134 38.37C22.134 38.762 22.204 38.972 22.344 39H16.464C16.604 38.972 16.66 38.762 16.632 38.37C16.632 37.978 16.436 37.348 16.044 36.48C15.82 35.976 15.512 35.318 15.12 34.506C14.756 33.694 14.336 32.812 13.86 31.86C13.412 30.88 12.936 29.872 12.432 28.836C11.928 27.772 11.424 26.736 10.92 25.728C10.444 24.692 9.996 23.74 9.576 22.872H9.45V36.48C9.45 37.376 9.548 38.02 9.744 38.412C9.94 38.804 10.136 39 10.332 39H2.1ZM40.7718 39C40.9678 39 41.1638 38.804 41.3598 38.412C41.5558 38.02 41.6538 37.376 41.6538 36.48V21.864C41.6538 20.968 41.5558 20.324 41.3598 19.932C41.1918 19.54 41.0098 19.344 40.8138 19.344H47.6178V36.48C47.6178 37.376 47.7018 38.02 47.8698 38.412C48.0658 38.804 48.2618 39 48.4578 39H40.7718ZM44.1738 16.152C43.1378 16.152 42.3118 15.872 41.6958 15.312C41.0798 14.752 40.7718 13.982 40.7718 13.002C40.7718 12.022 41.0658 11.252 41.6538 10.692C42.2698 10.132 43.1098 9.852 44.1738 9.852C45.2378 9.852 46.0638 10.132 46.6518 10.692C47.2678 11.252 47.5758 12.022 47.5758 13.002C47.5758 13.982 47.2678 14.752 46.6518 15.312C46.0638 15.872 45.2378 16.152 44.1738 16.152ZM52.2562 39C52.4522 39 52.6342 38.804 52.8022 38.412C52.9982 38.02 53.0962 37.376 53.0962 36.48V22.284C53.0962 21.388 52.9982 20.758 52.8022 20.394C52.6342 20.002 52.4522 19.792 52.2562 19.764C53.4882 19.764 54.7482 19.68 56.0362 19.512C57.3242 19.316 58.3322 19.12 59.0602 18.924V21.486L58.9762 22.032L59.0602 22.116C59.1442 21.92 59.4102 21.57 59.8582 21.066C60.3062 20.562 60.9502 20.086 61.7902 19.638C62.6302 19.162 63.6662 18.924 64.8982 18.924C67.5022 18.924 69.4902 19.666 70.8622 21.15C72.2622 22.634 72.9622 24.958 72.9622 28.122V36.48C72.9622 37.376 73.0462 38.02 73.2142 38.412C73.4102 38.804 73.6062 39 73.8022 39H66.1582C66.3542 39 66.5362 38.804 66.7042 38.412C66.9002 38.02 66.9982 37.376 66.9982 36.48V28.248C66.9982 26.932 66.8582 25.91 66.5782 25.182C66.2982 24.426 65.9062 23.894 65.4022 23.586C64.9262 23.278 64.3662 23.124 63.7222 23.124C62.9382 23.124 62.1822 23.32 61.4542 23.712C60.7542 24.076 60.1802 24.664 59.7322 25.476C59.2842 26.26 59.0602 27.31 59.0602 28.626V36.48C59.0602 37.376 59.1442 38.02 59.3122 38.412C59.5082 38.804 59.7042 39 59.9002 39H52.2562ZM85.5087 39.42C83.5767 39.42 82.1767 39.014 81.3087 38.202C80.4407 37.362 80.0067 36.004 80.0067 34.128V23.544H76.2267V19.344C77.5147 19.344 78.5227 19.19 79.2507 18.882C79.9787 18.546 80.4967 17.972 80.8047 17.16C81.1127 16.348 81.2667 15.214 81.2667 13.758H85.9707V19.344H93.1527C92.9567 19.904 92.7607 20.604 92.5647 21.444C92.3967 22.256 92.3127 22.956 92.3127 23.544H85.9707V31.818C85.9707 33.106 86.0687 33.988 86.2647 34.464C86.4607 34.94 86.9227 35.178 87.6507 35.178C88.1267 35.178 88.6447 35.01 89.2047 34.674C89.7927 34.338 90.3527 33.932 90.8847 33.456C91.4447 32.952 91.9067 32.476 92.2707 32.028V33.33L92.6907 37.404C92.3547 37.684 91.8507 37.992 91.1787 38.328C90.5067 38.636 89.6807 38.888 88.7007 39.084C87.7487 39.308 86.6847 39.42 85.5087 39.42Z" fill="white"/>
<rect x="104" y="6" width="39" height="39" rx="9" fill="#03DE82"/>
<path d="M118.89 35.3C116.87 35.3 115.21 34.98 113.91 34.34C112.61 33.7 111.65 32.78 111.03 31.58C110.41 30.36 110.1 28.91 110.1 27.23V18.77C110.1 18.13 110.03 17.68 109.89 17.42C109.77 17.14 109.64 17 109.5 17H115.26C115.12 17.02 114.98 17.16 114.84 17.42C114.72 17.68 114.66 18.13 114.66 18.77V27.17C114.66 28.45 114.84 29.44 115.2 30.14C115.56 30.84 116.06 31.32 116.7 31.58C117.34 31.84 118.08 31.97 118.92 31.97H119.25C119.91 31.97 120.49 31.9 120.99 31.76C121.51 31.62 121.94 31.38 122.28 31.04C122.64 30.7 122.91 30.22 123.09 29.6C123.29 28.96 123.39 28.15 123.39 27.17V18.77C123.39 18.13 123.32 17.68 123.18 17.42C123.06 17.14 122.93 17 122.79 17H128.55C128.41 17.02 128.27 17.17 128.13 17.45C128.01 17.71 127.95 18.16 127.95 18.8V27.23C127.95 28.91 127.63 30.36 126.99 31.58C126.37 32.78 125.41 33.7 124.11 34.34C122.83 34.98 121.19 35.3 119.19 35.3H118.89ZM130.961 35C131.101 35 131.231 34.87 131.351 34.61C131.491 34.33 131.561 33.86 131.561 33.2V18.8C131.561 18.16 131.491 17.7 131.351 17.42C131.231 17.14 131.101 17 130.961 17H136.751C136.611 17 136.471 17.14 136.331 17.42C136.191 17.68 136.121 18.15 136.121 18.83V33.2C136.121 33.84 136.191 34.3 136.331 34.58C136.471 34.86 136.611 35 136.751 35H130.961Z" fill="#103425"/>
</svg>
